<svg width="20" height="20" viewBox="0 0 20 20" fill="none" xmlns="http://www.w3.org/2000/svg">
<rect x="0.75" y="0.75" width="18.5" height="18.5" rx="1.25" stroke="#FFFFFF" stroke-width="1.5"/>
<path d="M6 9C5.58579 9 5.25 9.33579 5.25 9.75C5.25 10.1642 5.58579 10.5 6 10.5V9ZM13.5 10.5C13.9142 10.5 14.25 10.1642 14.25 9.75C14.25 9.33579 13.9142 9 13.5 9V10.5ZM9 13.5C9 13.9142 9.33579 14.25 9.75 14.25C10.1642 14.25 10.5 13.9142 10.5 13.5H9ZM10.5 6C10.5 5.58579 10.1642 5.25 9.75 5.25C9.33579 5.25 9 5.58579 9 6H10.5ZM6 10.5H13.5V9H6V10.5ZM10.5 13.5V6H9V13.5H10.5Z" fill="#FFFFFF"/>
</svg>
