<svg width="16" height="16" viewBox="0 0 16 16" fill="none" xmlns="http://www.w3.org/2000/svg">
<path d="M4.48199 15.84C3.44759 15.84 2.47879 15.396 1.77959 14.688C0.423594 13.3152 0.045994 10.9192 1.94679 8.99519L9.74519 1.09919C10.5356 0.29919 11.5412 -0.0104097 12.5036 0.25119C13.45 0.50719 14.2244 1.29199 14.478 2.24959C14.7356 3.22559 14.4308 4.24399 13.6412 5.04399L6.18279 12.596C5.75719 13.0272 5.27559 13.2824 4.79239 13.3336C4.31319 13.3848 3.85639 13.2296 3.53639 12.9056C2.95719 12.3168 2.87399 11.212 3.83879 10.236L9.07719 4.93199C9.29239 4.71439 9.64119 4.71439 9.85639 4.93199C10.0716 5.14959 10.0716 5.50319 9.85639 5.72079L4.61719 11.0256C4.16439 11.4832 4.12279 11.9208 4.31559 12.1168C4.40039 12.2016 4.52839 12.2408 4.67639 12.224C4.90279 12.2008 5.16119 12.0512 5.40359 11.8072L12.862 4.25599C13.374 3.73759 13.57 3.12799 13.414 2.53999C13.336 2.25245 13.1851 1.98993 12.9758 1.77787C12.7666 1.56581 12.5061 1.41139 12.2196 1.32959C11.6388 1.17199 11.0356 1.37119 10.5236 1.88959L2.72519 9.78559C1.27239 11.2568 1.62039 12.9504 2.55799 13.9C3.49639 14.8496 5.16759 15.2032 6.62119 13.7304L14.4196 5.83439C14.4704 5.78267 14.5311 5.7416 14.598 5.71356C14.6649 5.68553 14.7367 5.67109 14.8092 5.67109C14.8817 5.67109 14.9535 5.68553 15.0204 5.71356C15.0873 5.7416 15.1479 5.78267 15.1988 5.83439C15.3023 5.93972 15.3603 6.0815 15.3603 6.22919C15.3603 6.37688 15.3023 6.51866 15.1988 6.62399L7.40039 14.52C6.48119 15.4496 5.45159 15.84 4.48199 15.84Z" fill="#95A89E"/>
</svg>
