<svg width="20" height="18" viewBox="0 0 20 18" fill="none" xmlns="http://www.w3.org/2000/svg">
<path fill-rule="evenodd" clip-rule="evenodd" d="M5.19382 1.8317C5.59577 1.10118 6.03303 0.612829 6.68188 0.354573C7.87089 -0.118207 12.1293 -0.118207 13.3174 0.354668C13.9659 0.612784 14.4033 1.10105 14.8055 1.83142L15.2578 2.69857C15.2681 2.71576 15.2776 2.73086 15.2862 2.74387L15.3246 2.79637C15.5306 3.02088 15.8754 3.1565 16.103 3.1565C18.255 3.1565 20 4.90109 20 7.0525V12.8475C20 15.5917 17.7742 17.8175 15.03 17.8175H4.97C2.2251 17.8175 0 15.592 0 12.8475V7.0525C0 4.90109 1.74498 3.1565 3.897 3.1565C4.12377 3.1565 4.46908 3.02068 4.67544 2.79637C4.67956 2.79188 4.68494 2.78519 4.69145 2.77634L4.74287 2.69745L5.19382 1.8317ZM13.4917 2.55508C13.2417 2.10124 13.0158 1.84909 12.7626 1.74833L12.6433 1.70867C11.6142 1.41778 8.03441 1.431 7.23635 1.74833C6.98334 1.84904 6.75768 2.10105 6.50802 2.5548L6.12316 3.2989L6.02843 3.47033C5.94936 3.60186 5.87026 3.71289 5.77995 3.81129C5.27349 4.36179 4.52425 4.6565 3.897 4.6565L3.7329 4.66203C2.48575 4.74636 1.5 5.78472 1.5 7.0525V12.8475C1.5 14.7637 3.05359 16.3175 4.97 16.3175H15.03C16.9458 16.3175 18.5 14.7633 18.5 12.8475V7.0525C18.5 5.7296 17.4267 4.6565 16.103 4.6565L15.9289 4.64922C15.3403 4.60079 14.6793 4.31166 14.2194 3.81063C14.1303 3.71353 14.0517 3.60329 13.9731 3.47287C13.9618 3.45416 13.9478 3.42953 13.9317 3.40039L13.8156 3.18264L13.4917 2.55508Z" fill="#008DD2"/>
<path d="M15.5041 5.50018C16.0564 5.50018 16.5041 5.9479 16.5041 6.50018C16.5041 7.01302 16.1181 7.43569 15.6207 7.49346L15.5041 7.50018C14.9428 7.50018 14.4951 7.05247 14.4951 6.50018C14.4951 5.98735 14.8812 5.56468 15.3785 5.50691L15.5041 5.50018Z" fill="#008DD2"/>
<path fill-rule="evenodd" clip-rule="evenodd" d="M6.07031 10.1282C6.07031 7.95801 7.8291 6.19922 9.99931 6.19922C12.1695 6.19922 13.9283 7.95801 13.9283 10.1282C13.9283 12.2984 12.1695 14.0572 9.99931 14.0572C7.8291 14.0572 6.07031 12.2984 6.07031 10.1282ZM12.4283 10.1282C12.4283 8.78643 11.3411 7.69922 9.99931 7.69922C8.65753 7.69922 7.57031 8.78643 7.57031 10.1282C7.57031 11.47 8.65753 12.5572 9.99931 12.5572C11.3411 12.5572 12.4283 11.47 12.4283 10.1282Z" fill="#008DD2"/>
</svg>
