<svg width="19" height="20" viewBox="0 0 19 20" fill="none" xmlns="http://www.w3.org/2000/svg">
<path fill-rule="evenodd" clip-rule="evenodd" d="M0.0577053 17.4419C-0.110785 18.1565 0.0954705 18.8769 0.600943 19.3824C0.667758 19.4492 0.73893 19.5102 0.815913 19.5698C1.47535 20.0738 2.33887 20.1399 3.06948 19.7419L17.6069 11.8468C18.2794 11.4822 18.697 10.7814 18.6992 10.0181C18.6977 9.25845 18.2874 8.56197 17.62 8.19666L3.10797 0.258716C2.38099 -0.138544 1.51748 -0.07536 0.854406 0.427934C0.19061 0.930501 -0.104249 1.74536 0.0816723 2.5544L1.81088 10.0573L0.0577053 17.4419ZM1.5555 17.7976L3.20845 10.8328L10.9641 10.7928C11.389 10.7907 11.7332 10.4435 11.7303 10.0179C11.7274 9.59234 11.3802 9.24955 10.9554 9.25173L3.21353 9.2924L1.58091 2.20852C1.51119 1.90205 1.69929 1.71976 1.78427 1.65512C1.86778 1.59194 2.09292 1.45976 2.36817 1.61009L16.8802 9.54804C17.1271 9.68603 17.1576 9.92133 17.1561 10.0157C17.1561 10.1116 17.1278 10.3535 16.8715 10.4936L2.33331 18.3894C2.05516 18.5398 1.83365 18.4083 1.75013 18.3451C1.66661 18.282 1.48287 18.1026 1.5555 17.7976Z" fill="white"/>
</svg>
